<?xml version="1.0" standalone="no"?><!DOCTYPE svg PUBLIC "-//W3C//DTD SVG 1.1//EN" "http://www.w3.org/Graphics/SVG/1.1/DTD/svg11.dtd"><svg t="1714311364529" class="icon" viewBox="0 0 1024 1024" version="1.1" xmlns="http://www.w3.org/2000/svg" p-id="7256" width="200" height="200" xmlns:xlink="http://www.w3.org/1999/xlink"><path d="M512.581818 0l5.934546 0.186182 7.005091 0.605091 5.46909 0.768 6.237091 1.186909 5.352728 1.326545 5.632 1.675637 6.353454 2.304 6.679273 2.862545 5.608727 2.792727 5.352727 3.072 6.376728 4.165819 5.981091 4.44509 5.352727 4.561455 3.630545 3.421091 3.630546 3.723636 4.933818 5.655273 3.956364 5.12 3.141818 4.538182 4.189091 6.818909 2.141091 3.979636 2.513454 5.213091 1.466182 3.374546c1.210182 2.932364 2.327273 5.934545 3.304727 9.029818l1.419637 4.770909 0.581818 2.234182 0.884363 3.770182 0.605091 3.095272a139.729455 139.729455 0 0 1 118.318546 132.840728L744.727273 232.727273c0 15.36-2.490182 30.347636-7.261091 44.544l-0.744727 1.978182 0.930909 0.744727a209.105455 209.105455 0 0 1 76.776727 155.112727L814.545455 442.181818c0 18.850909-2.490182 37.352727-7.354182 55.179637l-1.163637 3.956363 0.861091 1.000727a231.796364 231.796364 0 0 1 54.062546 141.428364L861.090909 651.636364c0 128.535273-104.192 232.727273-232.727273 232.727272a23.272727 23.272727 0 0 1 0-46.545454 186.181818 186.181818 0 0 0 134.562909-314.88 23.272727 23.272727 0 0 1-5.026909-24.157091c6.656-17.92 10.100364-37.003636 10.100364-56.599273a162.699636 162.699636 0 0 0-72.843636-135.773091 23.272727 23.272727 0 0 1-7.68-30.254545c6.981818-13.265455 10.705455-28.043636 10.705454-43.426909 0-48.337455-36.933818-88.32-83.968-92.672l-4.561454-0.325818L604.602182 139.636364a23.272727 23.272727 0 0 1-22.574546-20.084364L581.818182 116.945455l-0.046546-3.49091-0.232727-3.607272-0.465454-3.84-0.605091-3.374546-1.163637-4.887272a71.261091 71.261091 0 0 0-1.698909-5.352728l-0.930909-2.397091-0.861091-2.071272-1.629091-3.374546-1.024-1.931636-2.792727-4.608-1.675636-2.443637-2.350546-3.072-3.211636-3.67709-2.048-2.117819-2.001455-1.908363-3.304727-2.839273-3.584-2.699636-3.956364-2.606546-3.095272-1.768727-3.258182-1.652364-4.142546-1.792-3.84-1.396363-3.328-1.000728-3.095272-0.791272-3.886546-0.744728-3.025454-0.465454-4.468364-0.372364L512 46.545455c-35.886545 0-65.629091 27.136-69.399273 61.719272l-0.302545 4.026182-0.116364 4.654546a23.272727 23.272727 0 0 1-20.154182 22.481454L419.397818 139.636364l-4.538182 0.093091a93.090909 93.090909 0 0 0-78.312727 136.401454 23.272727 23.272727 0 0 1-7.68 30.254546A162.699636 162.699636 0 0 0 256 442.181818c0 19.572364 3.444364 38.656 10.100364 56.599273a23.272727 23.272727 0 0 1-5.026909 24.180364 186.181818 186.181818 0 0 0 237.963636 283.531636 23.272727 23.272727 0 1 1 25.902545 38.656A231.633455 231.633455 0 0 1 395.636364 884.363636C267.101091 884.363636 162.909091 780.171636 162.909091 651.636364c0-52.689455 17.594182-102.632727 49.105454-143.034182l5.934546-7.284364-1.163636-3.956363a209.291636 209.291636 0 0 1-7.121455-45.777455L209.454545 442.181818a209.128727 209.128727 0 0 1 76.916364-162.210909L287.255273 279.272727l-0.721455-1.978182a139.217455 139.217455 0 0 1-7.051636-36.910545L279.272727 232.727273a139.682909 139.682909 0 0 1 113.594182-137.146182l4.770909-0.837818 0.884364-4.235637A116.596364 116.596364 0 0 1 507.345455 0.116364L512.581818 0z" fill="#ffffff" p-id="7257"></path><path d="M325.818182 1024a23.272727 23.272727 0 0 1-2.722909-46.382545L325.818182 977.454545h164.072727v-218.856727l-106.216727-63.744-2.257455-1.512727a23.272727 23.272727 0 0 1 26.205091-38.4l82.269091 49.384727V535.272727a23.272727 23.272727 0 0 1 46.405818-2.722909l0.139637 2.722909v88.692364l44.683636-31.813818a23.272727 23.272727 0 0 1 29.277091 36.072727l-2.280727 1.861818-69.818182 49.687273-1.861818 1.140364V977.454545H698.181818a23.272727 23.272727 0 0 1 2.722909 46.382546L698.181818 1024H325.818182z" fill="#ffffff" p-id="7258"></path></svg>