<?xml version="1.0" standalone="no"?><!DOCTYPE svg PUBLIC "-//W3C//DTD SVG 1.1//EN" "http://www.w3.org/Graphics/SVG/1.1/DTD/svg11.dtd"><svg t="1714312892800" class="icon" viewBox="0 0 1024 1024" version="1.1" xmlns="http://www.w3.org/2000/svg" p-id="12341" xmlns:xlink="http://www.w3.org/1999/xlink" width="200" height="200"><path d="M264.874667 719.377067H118.3744l146.500267 146.653866z" fill="#00B278" p-id="12342"></path><path d="M297.130667 703.300267v172.100266h311.159466a61.917867 61.917867 0 0 0 61.952-61.781333V608.938667l-100.829866 40.8064c-5.461333 2.423467-11.776 3.549867-18.210134 3.549866a47.3088 47.3088 0 0 1-34.048-14.1824 48.571733 48.571733 0 0 1-10.8032-52.2752l44.8512-110.4896c1.604267-3.874133 3.3792-6.929067 4.5056-8.533333 2.577067-4.1984 5.4784-7.099733 7.099734-8.567467l107.4176-107.5712v-141.312a61.917867 61.917867 0 0 0-61.934934-61.781333h-437.589333a61.917867 61.917867 0 0 0-61.952 61.781333v476.808534h172.270933c8.874667 0 16.128 7.099733 16.128 16.128z m27.272533-443.733334h170.820267c8.874667 0 16.128 7.253333 16.128 16.128s-7.253333 16.128-16.128 16.128H324.4032a16.1792 16.1792 0 0 1-16.128-16.128c0-8.874667 7.253333-16.128 16.128-16.128z m-96.768 109.687467h267.588267c8.874667 0 16.128 7.253333 16.128 16.128s-7.253333 16.128-16.128 16.128h-267.605334a16.1792 16.1792 0 0 1-16.128-16.128c0-8.874667 7.2704-16.128 16.128-16.128z m0 109.841067h267.588267c8.874667 0 16.128 7.099733 16.128 16.128 0 8.874667-7.253333 16.128-16.128 16.128h-267.605334a16.1792 16.1792 0 0 1-16.128-16.128c0-9.045333 7.2704-16.128 16.128-16.128z m-16.145067 125.815466c0-8.874667 7.2704-16.128 16.128-16.128H423.936c8.874667 0 16.128 7.253333 16.128 16.128s-7.2704 16.128-16.128 16.128H227.618133a16.1792 16.1792 0 0 1-16.128-16.128z" fill="#00B278" p-id="12343"></path><path d="M536.354133 598.766933a16.162133 16.162133 0 0 0 20.974934 21.128534l101.000533-40.994134-80.9984-80.9984-40.977067 100.864zM808.465067 259.242667l-12.1344 12.1344 88.541866 88.576 12.151467-12.151467a61.952 61.952 0 0 0 18.2272-44.202667 62.600533 62.600533 0 0 0-106.786133-44.373333zM596.309333 471.261867l177.134934-177.152 88.593066 88.610133-177.152 177.152z" fill="#00B278" p-id="12344"></path></svg>